<svg xmlns="http://www.w3.org/2000/svg"  width="300" height="400" xmlns:xlink="http://www.w3.org/1999/xlink" viewBox="194.54861450195312 64.5985107421875 186.24008178710938 288.5928039550781" preserveAspectRatio="xMinYMin meet"><rect id="svgEditorBackground" x="194.54861450195312" y="64.5985107421875" width="186.24008178710938" height="288.5928039550781" style="fill:none;stroke:none;"/><defs id="svgEditorDefs"><linearGradient gradientTransform="rotate(90)" gradientUnits="objectBoundingBox" id="lgrd2-d-reflect" spreadMethod="reflect" x1="0%" x2="5%" y1="0%" y2="5%"><stop offset="0%" stop-color="#e20709" stop-opacity="0.8"/><stop offset="5%" stop-color="#9ad346" stop-opacity="1"/></linearGradient><linearGradient gradientUnits="objectBoundingBox" id="lrgd2-e1" spreadMethod="pad" x1="0%" x2="100%" y1="0%" y2="0%"><stop offset="0%" stop-color="lightblue"/><stop offset="100%" stop-color="#ef5b2b"/></linearGradient><linearGradient gradientUnits="objectBoundingBox" id="lgrd2-black-white" spreadMethod="pad" x1="100%" x2="0%" y1="0%" y2="100%" gradientTransform="rotate(0)"><stop offset="0" stop-color="#7E52FF"/><stop offset="0.987273" stop-color="#EE4856"/></linearGradient></defs>
 <g class="layer">
  <g id="svg_4">
   <g id="svg_1" transform="rotate(-63.9582 294 161) matrix(-2.11 0 0 2.11 109.235 112.552)">
   <path d="m-53.441432,-3.388371c-2.791,-1.689,-9.076,-1.998,-17.454,2.453c-2.513,1.227,-9.773,5.215,-12.288,3.528c-2.514,-1.689,-5.026,-4.451,-7.819,-2.608c-2.792,1.839,-13.263,11.811,-18.153,17.487c-1.954,2.148,-3.368,3.976,-7.68,5.983c-2.532,1.182,-5.444,2.608,-7.819,1.689c0,0,-2.093,10.123,4.329,17.182c6.423,7.058,23.877,10.279,32.675,6.596c8.796,-3.682,11.308,-7.977,12.704,-10.127c1.396,-2.145,4.829,-6.267,6.086,-7.032c0.586,-0.359,2.933,-1.854,2.933,-1.854s1.09,0.882,1.538,1.214c0,0,1.034,-0.76,3.409,-2.603c2.373,-1.84,9.216,-6.857,10.61,-19.998c0.701,-8.999,-0.279,-10.224,-3.071,-11.91Zm-0.698,6.901c-1.257,2.456,-4.607,9.205,-13.823,9.359c-3.49,0,-8.159,-4.803,-13.685,-8.896c0,0,3.911,0.151,8.098,-1.997c4.19,-2.147,7.819,-4.601,11.591,-4.448c3.77,0.153,10.056,1.534,7.819,5.982Z" fill-rule="nonzero" id="e2_2" stroke-dashoffset="0" stroke-miterlimit="4" style="stroke:rgb(170,86,255);stroke-width:0px;" fill="url(#lgrd2-black-white)" transform="matrix(0.395774 -0.918348 0.918348 0.395774 -29.9672 -45.6628)"/><path d="m-53.441432,-3.388371c-2.791,-1.689,-9.076,-1.998,-17.454,2.453c-2.513,1.227,-9.773,5.215,-12.288,3.528c-2.514,-1.689,-5.026,-4.451,-7.819,-2.608c-2.792,1.839,-13.263,11.811,-18.153,17.487c-1.954,2.148,-3.368,3.976,-7.68,5.983c-2.532,1.182,-5.444,2.608,-7.819,1.689c0,0,-2.093,10.123,4.329,17.182c6.423,7.058,23.877,10.279,32.675,6.596c8.796,-3.682,11.308,-7.977,12.704,-10.127c1.396,-2.145,4.829,-6.267,6.086,-7.032c0.586,-0.359,2.933,-1.854,2.933,-1.854s1.09,0.882,1.538,1.214c0,0,1.034,-0.76,3.409,-2.603c2.373,-1.84,9.216,-6.857,10.61,-19.998c0.701,-8.999,-0.279,-10.224,-3.071,-11.91Zm-0.698,6.901c-1.257,2.456,-4.607,9.205,-13.823,9.359c-3.49,0,-8.159,-4.803,-13.685,-8.896c0,0,3.911,0.151,8.098,-1.997c4.19,-2.147,7.819,-4.601,11.591,-4.448c3.77,0.153,10.056,1.534,7.819,5.982Z" fill-rule="nonzero" id="e1_2" stroke-dashoffset="0" stroke-miterlimit="4" style="stroke:rgb(170,86,255);stroke-width:0px;" fill="url(#lgrd2-black-white)" transform="matrix(0.997202 -0.0747613 0.0747613 0.997202 -2.70059 -3.67194)"/></g>
  </g>
 </g>
</svg>